<?xml version="1.0" encoding="UTF-8" standalone="no"?><!DOCTYPE svg PUBLIC "-//W3C//DTD SVG 1.1//EN" "http://www.w3.org/Graphics/SVG/1.1/DTD/svg11.dtd"><svg width="100%" height="100%" viewBox="0 0 800 800" version="1.1" xmlns="http://www.w3.org/2000/svg" xmlns:xlink="http://www.w3.org/1999/xlink" xml:space="preserve" xmlns:serif="http://www.serif.com/" style="fill-rule:evenodd;clip-rule:evenodd;stroke-linejoin:round;stroke-miterlimit:1.41421;"><path id="Capa_2-2" d="M400,0c-219.434,0 -400,180.566 -400,400c0,219.434 180.566,400 400,400c219.434,0 400,-180.566 400,-400c0,-219.434 -180.566,-400 -400,-400Zm-43.548,640.323l-135.484,0l0,-29.57l107.527,0l0,-336.022l30.107,0l-2.15,365.592Zm222.58,0l-134.408,0l0,-365.592l27.957,0l0,336.022l107.527,0l-1.076,29.57Zm0,-393.011l-165.591,0l0,393.011l-28.495,0l0,-393.011l-161.29,0l0,-29.032l358.064,0l-2.688,29.032Zm58.602,-58.065l-476.344,0l0,-27.957l475.269,0l1.075,27.957Z" style="fill:#fff;fill-rule:nonzero;"/></svg>