<?xml version="1.0" encoding="utf-8"?>
<!-- Generator: Adobe Illustrator 23.0.0, SVG Export Plug-In . SVG Version: 6.00 Build 0)  -->
<svg version="1.0" id="Capa_1" xmlns="http://www.w3.org/2000/svg" xmlns:xlink="http://www.w3.org/1999/xlink" x="0px" y="0px"
	 viewBox="0 0 71.6 14.9" style="enable-background:new 0 0 71.6 14.9;" xml:space="preserve">
<style type="text/css">
	.st0{fill:#FFFFFF;}
</style>
<title>Recurso 1</title>
<g>
	<g id="Capa_1-2">
		<path class="st0" d="M25.7,4.1L25.7,4.1c0,0.5,0,1,0,1.5h0h-0.2l0,0l-0.1-0.4c0-0.1,0-0.3-0.1-0.4c0,0,0-0.1-0.1-0.1
			c-0.1,0-0.2-0.1-0.3-0.1c-0.2,0-0.4,0-0.6,0h-1c0,0.7,0,1.1,0,1.2v3.6c0,0.3,0,0.6,0,0.7c0,0.1,0,0.1,0.1,0.2
			c0.1,0,0.1,0.1,0.2,0.1c0.2,0,0.5,0.1,0.7,0.1l0,0v0.2l0,0h-1.5h-1.5h0v-0.2h0c0.2,0,0.4,0,0.6,0c0.1,0,0.1,0,0.2-0.1
			c0-0.1,0.1-0.1,0.1-0.2c0-0.2,0-0.4,0-0.6V5.8c0-0.1,0-0.5,0-1.2h-0.8c-0.3,0-0.6,0-0.8,0c-0.2,0-0.4,0-0.4,0.1
			c-0.1,0.2-0.1,0.3-0.1,0.5l-0.1,0.4h0h-0.2l0,0c0-0.7,0-1.2-0.1-1.5h0.1c0.6,0,1.6,0,3,0S25.1,4.1,25.7,4.1z"/>
		<path class="st0" d="M26.1,4.1L26.1,4.1c0.7,0,1.1,0,1.5,0h1.6h0.5c0.6-0.1,1.2,0.1,1.7,0.4c0.3,0.3,0.5,0.6,0.5,1
			c0,0.3-0.1,0.5-0.2,0.8C31.5,6.6,31.3,6.8,31,7c-0.4,0.2-0.8,0.3-1.2,0.4L30.4,8l0.7,0.9l0.8,0.9c0.2,0.2,0.3,0.4,0.5,0.5
			c0.1,0,0.1,0.1,0.2,0.1h0.3l0,0v0.2h0c-0.2,0-0.4,0-0.6,0h-0.8c-0.2-0.3-0.6-0.7-1.1-1.3c-0.6-0.7-1.2-1.4-1.8-2.1L28.6,7H29
			c0.5,0,1-0.1,1.4-0.4c0.3-0.3,0.5-0.7,0.5-1.1c0-0.4-0.1-0.7-0.5-0.9c-0.4-0.2-0.8-0.2-1.2-0.2c-0.3,0-0.7,0-1,0.1
			c-0.1,0.6-0.1,1.2-0.1,1.7v3.1c0,0.2,0,0.5,0,0.7c0,0.1,0,0.1,0.1,0.2c0.1,0,0.1,0.1,0.2,0.1c0.2,0,0.5,0.1,0.7,0.1l0,0v0.2l0,0
			h-0.9h-0.6h-1.5h0v-0.2h0c0.2,0,0.4,0,0.6,0c0.1,0,0.1,0,0.2-0.1c0-0.1,0.1-0.1,0.1-0.2c0-0.2,0-0.4,0-0.6V5.4c0-0.4,0-0.6,0-0.7
			c0-0.1,0-0.1-0.1-0.2c-0.1,0-0.1-0.1-0.2-0.1c-0.1,0-0.3,0-0.7-0.1h0L26.1,4.1z"/>
		<path class="st0" d="M33.1,4.1L33.1,4.1h1.5H36l0,0v0.2l0,0c-0.2,0-0.4,0-0.5,0c-0.1,0-0.2,0-0.3,0.1c-0.1,0-0.1,0.1-0.1,0.2
			c0,0.2,0,0.3,0,0.5v1.1v1.5c0,0.5,0,0.9,0,1.1c0,0.2,0.1,0.4,0.1,0.6c0.1,0.2,0.2,0.3,0.3,0.4c0.2,0.1,0.4,0.2,0.6,0.3
			c0.3,0.1,0.6,0.1,0.9,0.1c0.4,0,0.7,0,1-0.1c0.3-0.1,0.5-0.2,0.7-0.4c0.2-0.2,0.3-0.4,0.3-0.7c0.1-0.4,0.1-0.8,0.1-1.2V6.3
			c0-0.2,0-0.6,0-1c0-0.2,0-0.5-0.1-0.7c0-0.1-0.1-0.1-0.2-0.2c-0.2,0-0.5-0.1-0.7-0.1h0V4.1h0c0.5,0,0.9,0,1.2,0c0.3,0,0.7,0,1.2,0
			h0v0.2h0c-0.2,0-0.4,0-0.6,0c-0.1,0-0.1,0-0.2,0.1c0,0-0.1,0.1-0.1,0.2c0,0.2,0,0.4,0,0.6v1v1.5c0,0.4,0,0.9-0.1,1.3
			c0,0.3-0.1,0.6-0.3,0.8c-0.2,0.2-0.4,0.4-0.6,0.5c-0.3,0.2-0.6,0.3-0.9,0.3c-0.4,0.1-0.7,0.1-1.1,0.1c-0.4,0-0.9,0-1.3-0.1
			c-0.3-0.1-0.6-0.2-0.9-0.4c-0.2-0.1-0.3-0.3-0.5-0.5c-0.1-0.2-0.2-0.4-0.2-0.6c0-0.2,0-0.6,0-1.1V6.3V5.5c0-0.2,0-0.5,0-0.7
			c0-0.1,0-0.1-0.1-0.2c-0.1,0-0.1-0.1-0.2-0.1c-0.1,0-0.3,0-0.7-0.1h0L33.1,4.1z"/>
		<path class="st0" d="M41.4,4.1L41.4,4.1h2.2c1.1,0,2.1,0,3,0l0,0c-0.1,0.5-0.2,0.9-0.2,1.4l0,0h-0.2h-0.1c0,0,0-0.1,0-0.1
			c0-0.3,0-0.5-0.1-0.7c-0.3-0.1-0.6-0.2-0.9-0.2c-0.4,0-0.7,0-0.9,0s-0.6,0-1,0v0.7v0.9v0.9h1c0.3,0,0.6,0,0.8,0c0.1,0,0.2,0,0.4,0
			c0,0,0.1-0.1,0.1-0.1c0-0.1,0-0.2,0.1-0.3V6.3l0,0h0.2l0,0v1v1v0h-0.2v0V8.1c0-0.1,0-0.3-0.1-0.4c0,0-0.1-0.1-0.1-0.1
			c-0.1,0-0.3-0.1-0.4-0.1c-0.3,0-0.6,0-0.9,0h-0.9c0,0.3,0,0.7,0,1.3c0,0.6,0,1.1,0,1.4h0.9c0.8,0,1.3,0,1.6,0
			c0.2,0,0.4-0.1,0.6-0.2c0-0.1,0.1-0.2,0.1-0.5s0.1-0.4,0.1-0.5h0.1H47l0,0c0,0.2-0.1,0.5-0.1,0.7c0,0.3,0,0.6,0,0.9l0,0
			c-0.7,0-1.5,0-2.6,0h-1.5c-0.3,0-0.7,0-1,0h0v-0.1l0-0.1c0.1,0,0.2-0.1,0.3-0.2c0.1-0.3,0.1-0.5,0.1-0.8c0-0.5,0-0.9,0-1.2V5.5
			c0-0.2,0-0.4,0-0.6c0-0.1,0-0.2,0-0.3c0,0,0-0.1-0.1-0.1c0,0-0.1-0.1-0.1-0.1c-0.1,0-0.2,0-0.2,0h-0.4l0,0L41.4,4.1z"/>
		<path class="st0" d="M47.6,4.1L47.6,4.1h1.5h1.5l0,0v0.2l0,0c-0.2,0-0.4,0-0.5,0c-0.1,0-0.2,0-0.3,0.1c-0.1,0-0.1,0.1-0.1,0.2
			c0,0.2,0,0.3,0,0.5v3.2c0,0.5,0,0.9,0,1.1v0.8h1c0.9,0,1.3,0,1.6,0c0.2,0,0.4-0.1,0.6-0.1c0.1-0.2,0.1-0.3,0.2-0.5
			C53,9.4,53,9.3,53,9.1h0.1h0.3l0,0c0,0.2-0.1,0.5-0.1,0.7c0,0.4,0,0.6,0,0.9l0,0c-0.6,0-1.5,0-2.5,0h-1.5c-0.3,0-0.7,0-1,0h0v-0.2
			l0-0.1c0.1,0,0.2-0.1,0.3-0.2c0-0.2,0.1-0.4,0.1-0.6c0-0.4,0-0.8,0-1.4V5.4c0-0.4,0-0.6,0-0.7c0-0.1,0-0.1-0.1-0.2
			c-0.1,0-0.1-0.1-0.2-0.1c-0.1,0-0.3,0-0.7-0.1l0,0L47.6,4.1z"/>
		<path class="st0" d="M54.2,4.1L54.2,4.1h2.2c1.1,0,2.1,0,3,0l0,0c-0.1,0.5-0.2,0.9-0.2,1.4l0,0H59h-0.1c0,0,0-0.1,0-0.1
			c0-0.3,0-0.5-0.1-0.7c-0.3-0.1-0.6-0.2-0.9-0.2c-0.4,0-0.7,0-0.9,0s-0.6,0-1,0v0.7v0.9v0.9h1c0.3,0,0.6,0,0.8,0c0.1,0,0.2,0,0.3,0
			c0,0,0.1-0.1,0.1-0.1c0-0.1,0-0.2,0.1-0.3V6.3h0h0.2h0v1v1l0,0h-0.2l0,0V8.1c0-0.1,0-0.3-0.1-0.4c0,0-0.1-0.1-0.1-0.1
			c-0.1,0-0.3-0.1-0.4-0.1c-0.3,0-0.6,0-0.9,0h-0.9C56,7.8,56,8.2,56,8.8s0,1.1,0,1.4h0.9c0.8,0,1.3,0,1.6,0c0.2,0,0.4-0.1,0.6-0.1
			c0-0.1,0.1-0.2,0.1-0.5s0.1-0.4,0.1-0.5h0.1h0.2l0,0c0,0.2-0.1,0.5-0.1,0.7c0,0.3,0,0.6,0,0.9l0,0c-0.7,0-1.5,0-2.6,0h-1.3
			c-0.3,0-0.7,0-1,0l0,0v-0.1v-0.1c0.1,0,0.2-0.1,0.3-0.2C55,10,55.1,9.8,55,9.5c0-0.5,0-0.9,0-1.2V5.5c0-0.2,0-0.4,0-0.6
			c0-0.1,0-0.2,0-0.3c0,0,0-0.1-0.1-0.1c0,0-0.1-0.1-0.1-0.1c-0.1,0-0.2,0-0.3,0h-0.4l0,0L54.2,4.1z"/>
		<path class="st0" d="M60.3,4.5L60.3,4.5l-0.1-0.2l0.1,0L61.7,4c0.1,0.1,0.2,0.2,0.3,0.3c0.2,0.2,0.3,0.4,0.4,0.5
			c0.2,0.3,0.4,0.7,0.7,1.1c0.3,0.5,0.6,1,0.9,1.5l0.5-0.7l0.6-0.9l1.1-1.7c0.1,0,0.3,0,0.4,0c0.1,0,0.2,0,0.4,0l0,0v0.1
			c-0.3,0.3-0.5,0.6-0.8,0.9c-0.4,0.5-0.6,0.8-0.8,1.1c-0.2,0.3-0.4,0.6-0.6,0.9c-0.2,0.2-0.3,0.5-0.4,0.7c0,0.1,0,0.2,0,0.3v1.4
			c0,0.2,0,0.4,0,0.6c0,0.1,0,0.1,0.1,0.2c0.1,0,0.1,0.1,0.2,0.1c0.2,0,0.5,0.1,0.7,0.1l0,0v0.2l0,0h-0.9h-0.6h-1.5l0,0v-0.2l0,0
			c0.2,0,0.4,0,0.6,0c0.1,0,0.1,0,0.2-0.1c0,0,0.1-0.1,0.1-0.2c0-0.2,0-0.3,0-0.5V7.9c-0.2-0.4-0.5-0.8-0.7-1.2L62.1,6
			c-0.1-0.2-0.3-0.5-0.5-0.7c-0.1-0.2-0.3-0.4-0.5-0.6c-0.1-0.1-0.2-0.1-0.3-0.2C60.6,4.5,60.4,4.5,60.3,4.5z"/>
	</g>
	<g id="Capa_2-2">
		<path class="st0" d="M11.1,1C7.5,1,4.6,3.9,4.6,7.4s2.9,6.5,6.5,6.5s6.5-2.9,6.5-6.5S14.7,1,11.1,1C11.1,1,11.1,1,11.1,1z
			 M10.4,11.3H8.2v-0.5h1.7V5.4h0.5L10.4,11.3z M14,11.3h-2.2V5.4h0.5v5.4H14L14,11.3z M14,5h-2.7v6.4h-0.5V5H8.2V4.5H14L14,5z
			 M14.9,4H7.2V3.6h7.7L14.9,4z"/>
	</g>
</g>
</svg>
