<?xml version="1.0" encoding="utf-8"?>
<!-- Generator: Adobe Illustrator 23.0.0, SVG Export Plug-In . SVG Version: 6.00 Build 0)  -->
<svg version="1.1" id="Capa_1" xmlns="http://www.w3.org/2000/svg" xmlns:xlink="http://www.w3.org/1999/xlink" x="0px" y="0px"
	 viewBox="0 0 581 260" style="enable-background:new 0 0 581 260;" xml:space="preserve">
<style type="text/css">
	.st0{fill-rule:evenodd;clip-rule:evenodd;fill:url(#SVGID_1_);stroke:#FFFFFF;stroke-width:0.75;stroke-miterlimit:10;}
	.st1{fill:none;stroke:#FFFFFF;stroke-width:5;stroke-linecap:round;stroke-miterlimit:10;}
	.st2{fill:none;stroke:#FFFFFF;stroke-width:5;stroke-miterlimit:10;}
	.st3{fill:#FFFFFF;}
</style>
<linearGradient id="SVGID_1_" gradientUnits="userSpaceOnUse" x1="5583.9424" y1="19774.4531" x2="-7445.4673" y2="6745.0234" gradientTransform="matrix(3.000000e-02 0 0 3.000000e-02 334.31 -251.91)">
	<stop  offset="0" style="stop-color:#48CFAE"/>
	<stop  offset="1" style="stop-color:#4FC0E8"/>
</linearGradient>
<polygon class="st0" points="0.4,0.4 580.6,0.4 580.6,259.6 0.4,259.6 "/>
<g>
	<path class="st1" d="M388.7,70h33.5c1,0,1.9,0.5,2.4,1.4l5.3,8.7c0.5,0.8,1.4,1.4,2.4,1.4H515c1.6,0,2.8,1.3,2.8,2.8c0,0,0,0,0,0
		v102.9c0,1.6-1.3,2.8-2.8,2.9H388.7c-1.6,0-2.8-1.3-2.8-2.9V72.8C385.8,71.2,387.1,70,388.7,70L388.7,70z"/>
	<rect x="385.8" y="93.9" class="st2" width="132" height="96.1"/>
</g>
<g id="Camada_1">
	<path class="st3" d="M299.1,74.8c17,0,30.7,13.8,30.7,30.8S316,136.3,299,136.3c-17,0-30.7-13.8-30.7-30.8c0-8.1,3.2-16,9-21.7
		C283.1,78,290.9,74.8,299.1,74.8z M219.9,130.3c-1.3-0.1-2.3-1.2-2.2-2.5c0.1-1.2,1-2.2,2.2-2.2h17.4v-17.4
		c0.1-1.3,1.2-2.3,2.5-2.2c1.2,0.1,2.2,1,2.2,2.2v17.4h17.4c1.3,0.1,2.3,1.2,2.2,2.5c-0.1,1.2-1,2.2-2.2,2.2h-17.4v17.4
		c-0.1,1.3-1.2,2.3-2.5,2.2c-1.2-0.1-2.2-1-2.2-2.2v-17.4H219.9z M323.1,143.6c-1.1-0.7-1.4-2.2-0.7-3.3c0.7-1.1,2.2-1.4,3.3-0.7
		c6.6,4.4,12,10.4,15.8,17.4c3.7,7,5.7,14.7,5.7,22.6v10.9c0,1.3-1.1,2.4-2.4,2.4c0,0,0,0,0,0h-91.6c-1.3,0-2.4-1.1-2.4-2.4v-10.9
		c0-7.9,2-15.8,5.7-22.7c3.8-7,9.3-13,15.9-17.4c1.1-0.7,2.6-0.4,3.3,0.7s0.4,2.6-0.7,3.3l0,0c-6,4-10.9,9.4-14.4,15.7
		c-3.4,6.3-5.2,13.3-5.1,20.5v8.5h86.8v-8.5c0-7.1-1.7-14.1-5.1-20.3C334,153.1,329.1,147.7,323.1,143.6L323.1,143.6z M317.4,87.2
		c-10.1-10.1-26.5-10.1-36.7,0s-10.1,26.5,0,36.7c10.1,10.1,26.5,10.1,36.7,0c4.9-4.9,7.6-11.5,7.6-18.3
		C325,98.7,322.2,92.1,317.4,87.2z"/>
</g>
</svg>
